<?xml version="1.0" standalone="no"?>
<!DOCTYPE svg PUBLIC "-//W3C//DTD SVG 20010904//EN"
 "http://www.w3.org/TR/2001/REC-SVG-20010904/DTD/svg10.dtd">
<svg version="1.0" xmlns="http://www.w3.org/2000/svg"
 width="150.000000pt" height="150.000000pt" viewBox="0 0 150.000000 150.000000"
 preserveAspectRatio="xMidYMid meet">
<metadata>
Created by potrace 1.14, written by Peter Selinger 2001-2017
</metadata>
<g transform="translate(0.000000,150.000000) scale(0.100000,-0.100000)"
fill="#000000" stroke="none">
<path d="M130 750 l0 -620 620 0 620 0 0 620 0 620 -620 0 -620 0 0 -620z
m1150 0 l0 -530 -530 0 -530 0 0 530 0 530 530 0 530 0 0 -530z"/>
<path d="M340 1196 c0 -20 6 -24 42 -29 80 -11 78 1 78 -422 0 -423 2 -411
-78 -422 -32 -4 -42 -10 -42 -24 0 -18 13 -19 255 -19 243 0 255 1 255 19 0
15 -10 19 -56 23 -39 3 -61 11 -77 27 -21 20 -22 32 -25 196 -4 197 -5 195 69
175 74 -20 107 -65 133 -183 5 -20 12 -27 24 -25 15 3 17 26 20 241 l2 238
-21 -3 c-16 -2 -26 -17 -39 -61 -10 -31 -26 -69 -35 -83 -20 -31 -71 -54 -120
-54 l-35 0 0 158 c0 212 -3 207 125 206 161 -1 218 -38 260 -171 13 -39 22
-53 36 -53 18 0 19 10 19 145 l0 145 -395 0 -395 0 0 -24z"/>
</g>
</svg>
